# xmcd
#
# Track frame offsets: 
#        150
#        15189
#        33051
#        47990
#        81935
#        96120
#        107964
#        121632
#        133772
#
# Disc length: 2050 seconds
#
# Revision: 0
# Processed by: cddbd v1.5.2PL0 Copyright (c) Steve Scherf et al.
# Submitted via: ExactAudioCopy v1.0b3
#
DISCID=66080009
DTITLE=Glen Duncan - Sweetwater
DYEAR=1988
DGENRE=Country
TTITLE0=Sweetwater
TTITLE1=Angels Lullaby
TTITLE2=When You Are Lonely
TTITLE3=Sally Goddin
TTITLE4=Lakeside Drive
TTITLE5=Flop-Eared Mule
TTITLE6=Southern Circus
TTITLE7=Topeka Polka
TTITLE8=What A Friend We Have In Jesus
EXTD=
EXTT0=
EXTT1=
EXTT2=
EXTT3=
EXTT4=
EXTT5=
EXTT6=
EXTT7=
EXTT8=
PLAYORDER=
